<svg width="32" height="36" viewBox="0 0 32 36" fill="none" xmlns="http://www.w3.org/2000/svg">
<path d="M13.2287 0.758673C14.9436 -0.252891 17.0564 -0.252891 18.7713 0.758673L29.2287 6.92727C30.9436 7.93883 32 9.80828 32 11.8314V24.1686C32 26.1917 30.9436 28.0612 29.2287 29.0727L18.7713 35.2413C17.0564 36.2529 14.9436 36.2529 13.2287 35.2413L2.77128 29.0727C1.05641 28.0612 0 26.1917 0 24.1686V11.8314C0 9.80828 1.05641 7.93883 2.77128 6.92727L13.2287 0.758673Z" fill="#497EFF"/>
<path fill-rule="evenodd" clip-rule="evenodd" d="M19.1627 16.0851C19.013 16.27 18.7337 16.4695 18.4742 16.3386C18.0808 16.14 17.8516 15.4208 17.9331 14.953C18.0148 14.4853 18.1428 13.8231 18.1428 13.8231C18.1428 13.8231 18.2491 13.6221 18.4667 13.7789C18.6838 13.9355 19.4785 14.6452 19.5008 14.8011C19.5231 14.9571 19.3123 15.9003 19.1627 16.0851ZM19.7331 14.048C18.8865 13.2194 18.5917 12.3334 18.0871 12.2336C17.5825 12.1338 16.5729 12.2097 16.667 11.5016C16.667 11.5016 16.9049 11.3346 17.0213 10.9811C17.1371 10.6273 17.129 10.2574 17.0499 9.99164C16.9706 9.72589 16.5849 8.85161 15.5733 9.26589C14.7484 9.60392 15.0429 10.633 15.1916 10.8005C15.34 10.9682 15.601 11.2527 15.6234 11.4003C15.6459 11.5479 15.6907 11.9616 15.2307 12.2158C14.771 12.4703 14.1826 12.6242 14.2094 13.5538C14.2203 13.9264 14.1106 14.3323 14.0415 14.3323C13.9761 14.3323 13.5636 14.1587 13.3894 14C12.9779 13.6251 12.7378 13.2308 12.6011 13.083C12.4636 12.9351 11.5579 12.8736 11.3169 12.8138C11.0764 12.7541 10.7211 12.6545 10.7896 12.7531C10.858 12.8518 11.3396 12.922 11.5688 13.1094C11.797 13.297 12.0842 13.2685 12.2681 13.3279C12.4506 13.3875 12.7761 13.9766 13.3422 14.8712C13.6989 15.435 14.025 15.6598 14.2053 15.667C14.4353 15.6764 14.5742 15.6622 14.8046 15.417C15.0346 15.1721 15.1393 15.6082 15.0924 15.8244C15.0456 16.0408 14.3238 17.1183 14.5304 19.0436C14.6689 20.336 15.1689 21.2008 15.1689 22.0567C15.1689 22.6077 15.0334 23.5467 15.1689 24.196C15.3041 24.8455 15.4783 25.4235 15.4769 25.797C15.4757 26.171 15.3826 26.6033 15.427 27.0165C15.4715 27.4296 15.813 27.9363 16.2318 27.7466C16.3608 27.6882 16.5121 27.7358 16.6508 27.7701C16.8664 27.8236 17.0532 27.6817 16.9349 27.3938C16.8445 27.1737 16.3837 27.0273 16.6173 25.7495C16.827 24.6042 17.1329 24.2161 17.1827 22.5464C17.1953 22.1289 17.2744 21.7154 17.4152 21.319C17.6267 20.7245 17.9309 19.7629 18.0757 18.8031C18.3106 17.2499 18.1962 17.4047 18.5637 17.2486C18.9314 17.0923 19.8176 16.1137 20.0496 15.4456C20.2808 14.7773 20.579 14.8765 19.7331 14.048Z" fill="white"/>
</svg>
