<svg xmlns="http://www.w3.org/2000/svg" xmlns:xlink="http://www.w3.org/1999/xlink" width="16" height="16" viewBox="0 0 16 16">
    <defs>
        <path id="a" d="M2 0h12a2 2 0 0 1 2 2v12a2 2 0 0 1-2 2H2a2 2 0 0 1-2-2V2a2 2 0 0 1 2-2zm7.733 6.965c-.088.111-.252.231-.405.153-.231-.12-.366-.552-.318-.833.048-.282.123-.68.123-.68s.063-.12.19-.026c.128.094.596.52.61.614.013.094-.112.661-.2.772zm.336-1.224C9.571 5.243 9.397 4.71 9.1 4.65c-.297-.06-.891-.014-.836-.44 0 0 .14-.1.209-.313.068-.213.063-.435.017-.595-.047-.16-.274-.685-.87-.436-.485.203-.311.822-.224.922.087.101.241.272.254.361a.448.448 0 0 1-.231.49c-.27.153-.617.246-.601.805.006.223-.058.468-.099.468a1.11 1.11 0 0 1-.384-.2c-.242-.226-.383-.463-.464-.551-.08-.09-.614-.126-.756-.162-.141-.036-.35-.096-.31-.037.04.06.324.102.459.214.134.113.303.096.411.132.108.036.3.39.632.927.21.34.402.474.509.479.135.006.217-.003.352-.15.136-.148.197.114.17.244-.028.13-.453.778-.331 1.936.081.777.376 1.296.376 1.81 0 .332-.08.897 0 1.287.08.39.182.738.181.962 0 .225-.056.485-.03.733.027.249.228.553.474.44.076-.036.165-.007.247.013.127.033.237-.053.167-.226-.053-.132-.324-.22-.187-.988.124-.689.304-.922.333-1.926.007-.25.054-.5.137-.738.124-.357.303-.935.389-1.512.138-.934.07-.84.287-.934.216-.094.738-.683.874-1.084.136-.402.312-.342-.186-.84z"/>
    </defs>
    <g fill="none" fill-rule="evenodd">
        <mask id="b" fill="#fff">
            <use xlink:href="#a"/>
        </mask>
        <use fill="#FFF" opacity=".56" xlink:href="#a"/>
        <path d="M-2-2h21.333v21.333H-2z" mask="url(#b)"/>
        <g fill="#497EFF" mask="url(#b)">
            <path d="M-2-2h21v21H-2z"/>
        </g>
    </g>
</svg>
